<svg width="1288" height="728" viewBox="0 0 1288 728" fill="none" xmlns="http://www.w3.org/2000/svg">
<g filter="url(#filter0_d)">
<path d="M5 39H1283V714C1283 716.761 1280.76 719 1278 719H9.99998C7.23856 719 5 716.761 5 714V39Z" stroke="#D8D8D8" stroke-width="2"/>
<path d="M4 6C4 2.68629 6.68629 0 10 0H1278C1281.31 0 1284 2.68629 1284 6V38H4V6Z" fill="url(#paint0_linear)"/>
<rect x="4" y="37" width="1280" height="1" fill="#B1B1B3"/>
<rect x="1260" y="13" width="24" height="24" fill="#BDBDBD"/>
<path fill-rule="evenodd" clip-rule="evenodd" d="M1260 12H1259V13V37H1260V13H1284V12H1260Z" fill="#B1B1B3"/>
<path fill-rule="evenodd" clip-rule="evenodd" d="M1272 20H1271V25H1266V26H1271V31H1272V26H1277V25H1272V20Z" fill="#666666"/>
<rect x="1214" y="8" width="37" height="22" rx="4" fill="#F6F6F6"/>
<rect x="1213.75" y="7.75" width="37.5" height="22.5" rx="4.25" stroke="black" stroke-opacity="0.05" stroke-width="0.5"/>
<path fill-rule="evenodd" clip-rule="evenodd" d="M1238 14H1231V15H1230V14C1230 13.4477 1230.45 13 1231 13H1238C1238.55 13 1239 13.4477 1239 14V21C1239 21.5523 1238.55 22 1238 22H1237V21H1238V14ZM1228 17H1235V24H1228V17ZM1227 17C1227 16.4477 1227.45 16 1228 16H1235C1235.55 16 1236 16.4477 1236 17V24C1236 24.5523 1235.55 25 1235 25H1228C1227.45 25 1227 24.5523 1227 24V17Z" fill="#666666"/>
<rect x="1169" y="8" width="37" height="22" rx="4" fill="#F6F6F6"/>
<rect x="1168.75" y="7.75" width="37.5" height="22.5" rx="4.25" stroke="black" stroke-opacity="0.05" stroke-width="0.5"/>
<path fill-rule="evenodd" clip-rule="evenodd" d="M1187.89 12.1464C1187.69 11.9512 1187.38 11.9512 1187.18 12.1464L1184.35 14.9749C1184.16 15.1701 1184.16 15.4867 1184.35 15.682C1184.55 15.8772 1184.87 15.8772 1185.06 15.682L1187 13.7426V22H1188V13.6716L1190.01 15.682C1190.21 15.8772 1190.52 15.8772 1190.72 15.682C1190.91 15.4867 1190.91 15.1701 1190.72 14.9749L1187.89 12.1464ZM1192 18H1189V17H1192C1192.55 17 1193 17.4477 1193 18V26C1193 26.5523 1192.55 27 1192 27H1183C1182.45 27 1182 26.5523 1182 26V18C1182 17.4477 1182.45 17 1183 17H1186V18H1183V26H1192V18Z" fill="#ADADAD"/>
<rect x="392" y="8" width="504" height="22" rx="4" fill="#F6F6F6"/>
<rect x="391.75" y="7.75" width="504.5" height="22.5" rx="4.25" stroke="black" stroke-opacity="0.05" stroke-width="0.5"/>
<path d="M624.516 20.0459C624.516 19.14 624.725 18.4202 625.144 17.8867C625.563 17.3496 626.118 17.0811 626.809 17.0811C627.518 17.0811 628.071 17.3317 628.469 17.833L628.517 17.1885H629.425V22.8604C629.425 23.6123 629.201 24.2049 628.753 24.6382C628.309 25.0715 627.711 25.2881 626.959 25.2881C626.541 25.2881 626.131 25.1986 625.729 25.0195C625.328 24.8405 625.022 24.5952 624.811 24.2837L625.327 23.6875C625.753 24.2139 626.274 24.4771 626.89 24.4771C627.373 24.4771 627.749 24.341 628.018 24.0688C628.29 23.7967 628.426 23.4136 628.426 22.9194V22.4199C628.028 22.8783 627.486 23.1074 626.798 23.1074C626.118 23.1074 625.567 22.8335 625.144 22.2856C624.725 21.7378 624.516 20.9912 624.516 20.0459ZM625.515 20.1587C625.515 20.814 625.649 21.3296 625.917 21.7056C626.186 22.078 626.562 22.2642 627.045 22.2642C627.672 22.2642 628.132 21.9795 628.426 21.4102V18.7568C628.121 18.2018 627.665 17.9243 627.056 17.9243C626.573 17.9243 626.195 18.1123 625.923 18.4883C625.651 18.8643 625.515 19.4211 625.515 20.1587ZM630.666 20.0405C630.666 19.4712 630.777 18.9591 630.999 18.5044C631.224 18.0496 631.536 17.6987 631.933 17.4517C632.334 17.2046 632.791 17.0811 633.303 17.0811C634.094 17.0811 634.733 17.355 635.22 17.9028C635.711 18.4507 635.956 19.1794 635.956 20.0889V20.1587C635.956 20.7244 635.847 21.2329 635.628 21.6841C635.414 22.1317 635.104 22.4808 634.699 22.7314C634.298 22.9821 633.836 23.1074 633.313 23.1074C632.526 23.1074 631.887 22.8335 631.396 22.2856C630.909 21.7378 630.666 21.0127 630.666 20.1104V20.0405ZM631.665 20.1587C631.665 20.8032 631.813 21.3206 632.11 21.7109C632.411 22.1012 632.812 22.2964 633.313 22.2964C633.818 22.2964 634.219 22.0994 634.517 21.7056C634.814 21.3081 634.962 20.7531 634.962 20.0405C634.962 19.4032 634.81 18.8875 634.506 18.4937C634.205 18.0962 633.804 17.8975 633.303 17.8975C632.812 17.8975 632.417 18.0926 632.116 18.4829C631.815 18.8732 631.665 19.4318 631.665 20.1587ZM640.586 21.4585C640.586 21.1899 640.484 20.9823 640.28 20.8354C640.079 20.6851 639.727 20.5562 639.222 20.4487C638.72 20.3413 638.321 20.2124 638.024 20.062C637.73 19.9116 637.512 19.7326 637.369 19.5249C637.229 19.3172 637.159 19.0701 637.159 18.7837C637.159 18.3075 637.36 17.9046 637.761 17.5752C638.165 17.2458 638.681 17.0811 639.308 17.0811C639.966 17.0811 640.5 17.2511 640.908 17.5913C641.32 17.9315 641.526 18.3665 641.526 18.8965H640.527C640.527 18.6243 640.41 18.3898 640.178 18.1929C639.949 17.9959 639.659 17.8975 639.308 17.8975C638.946 17.8975 638.663 17.9762 638.459 18.1338C638.255 18.2913 638.153 18.4972 638.153 18.7515C638.153 18.9914 638.248 19.1722 638.438 19.2939C638.627 19.4157 638.969 19.5321 639.463 19.6431C639.961 19.7541 640.364 19.8866 640.672 20.0405C640.98 20.1945 641.207 20.3807 641.354 20.5991C641.504 20.814 641.58 21.0771 641.58 21.3887C641.58 21.9079 641.372 22.325 640.957 22.6401C640.541 22.9517 640.002 23.1074 639.34 23.1074C638.874 23.1074 638.463 23.0251 638.104 22.8604C637.746 22.6956 637.465 22.4665 637.261 22.1729C637.061 21.8757 636.96 21.5552 636.96 21.2114H637.954C637.972 21.5444 638.104 21.8094 638.352 22.0063C638.602 22.1997 638.932 22.2964 639.34 22.2964C639.716 22.2964 640.017 22.2212 640.242 22.0708C640.471 21.9168 640.586 21.7127 640.586 21.4585ZM644.824 19.3101L646.113 17.1885H647.273L645.372 20.062L647.332 23H646.183L644.84 20.8247L643.497 23H642.342L644.303 20.062L642.401 17.1885H643.551L644.824 19.3101ZM651.14 18.0801C650.99 18.055 650.827 18.0425 650.651 18.0425C650 18.0425 649.557 18.32 649.325 18.875V23H648.331V17.1885H649.298L649.314 17.8599C649.64 17.3407 650.102 17.0811 650.7 17.0811C650.893 17.0811 651.04 17.1061 651.14 17.1562V18.0801ZM651.715 20.0459C651.715 19.14 651.924 18.4202 652.343 17.8867C652.762 17.3496 653.317 17.0811 654.008 17.0811C654.717 17.0811 655.271 17.3317 655.668 17.833L655.716 17.1885H656.624V22.8604C656.624 23.6123 656.4 24.2049 655.953 24.6382C655.509 25.0715 654.911 25.2881 654.159 25.2881C653.74 25.2881 653.33 25.1986 652.929 25.0195C652.528 24.8405 652.222 24.5952 652.01 24.2837L652.526 23.6875C652.952 24.2139 653.473 24.4771 654.089 24.4771C654.572 24.4771 654.948 24.341 655.217 24.0688C655.489 23.7967 655.625 23.4136 655.625 22.9194V22.4199C655.228 22.8783 654.685 23.1074 653.998 23.1074C653.317 23.1074 652.766 22.8335 652.343 22.2856C651.924 21.7378 651.715 20.9912 651.715 20.0459ZM652.714 20.1587C652.714 20.814 652.848 21.3296 653.117 21.7056C653.385 22.078 653.761 22.2642 654.245 22.2642C654.871 22.2642 655.331 21.9795 655.625 21.4102V18.7568C655.321 18.2018 654.864 17.9243 654.255 17.9243C653.772 17.9243 653.394 18.1123 653.122 18.4883C652.85 18.8643 652.714 19.4211 652.714 20.1587ZM660.078 19.3101L661.367 17.1885H662.527L660.625 20.062L662.586 23H661.437L660.094 20.8247L658.751 23H657.596L659.557 20.062L657.655 17.1885H658.805L660.078 19.3101ZM665.535 19.3101L666.824 17.1885H667.984L666.083 20.062L668.043 23H666.894L665.551 20.8247L664.208 23H663.053L665.014 20.062L663.112 17.1885H664.262L665.535 19.3101ZM669.063 22.479C669.063 22.3071 669.114 22.1639 669.214 22.0493C669.318 21.9347 669.472 21.8774 669.676 21.8774C669.88 21.8774 670.034 21.9347 670.138 22.0493C670.245 22.1639 670.299 22.3071 670.299 22.479C670.299 22.6437 670.245 22.7816 670.138 22.8926C670.034 23.0036 669.88 23.0591 669.676 23.0591C669.472 23.0591 669.318 23.0036 669.214 22.8926C669.114 22.7816 669.063 22.6437 669.063 22.479ZM674.273 22.2964C674.628 22.2964 674.938 22.189 675.203 21.9741C675.468 21.7593 675.614 21.4907 675.643 21.1685H676.583C676.565 21.5015 676.451 21.8184 676.239 22.1191C676.028 22.4199 675.745 22.6598 675.391 22.8389C675.04 23.0179 674.667 23.1074 674.273 23.1074C673.482 23.1074 672.852 22.8442 672.383 22.3179C671.917 21.7879 671.685 21.0646 671.685 20.1479V19.9814C671.685 19.4157 671.788 18.9126 671.996 18.4722C672.204 18.0317 672.501 17.6898 672.888 17.4463C673.278 17.2028 673.738 17.0811 674.268 17.0811C674.92 17.0811 675.46 17.2762 675.89 17.6665C676.323 18.0568 676.554 18.5635 676.583 19.1865H675.643C675.614 18.8105 675.471 18.5026 675.213 18.2627C674.959 18.0192 674.644 17.8975 674.268 17.8975C673.763 17.8975 673.371 18.0801 673.092 18.4453C672.816 18.807 672.678 19.3315 672.678 20.019V20.207C672.678 20.8766 672.816 21.3923 673.092 21.7539C673.368 22.1156 673.761 22.2964 674.273 22.2964ZM677.437 20.0405C677.437 19.4712 677.548 18.9591 677.77 18.5044C677.996 18.0496 678.307 17.6987 678.705 17.4517C679.106 17.2046 679.562 17.0811 680.074 17.0811C680.866 17.0811 681.505 17.355 681.992 17.9028C682.482 18.4507 682.728 19.1794 682.728 20.0889V20.1587C682.728 20.7244 682.618 21.2329 682.4 21.6841C682.185 22.1317 681.875 22.4808 681.471 22.7314C681.07 22.9821 680.608 23.1074 680.085 23.1074C679.297 23.1074 678.658 22.8335 678.167 22.2856C677.681 21.7378 677.437 21.0127 677.437 20.1104V20.0405ZM678.436 20.1587C678.436 20.8032 678.585 21.3206 678.882 21.7109C679.183 22.1012 679.584 22.2964 680.085 22.2964C680.59 22.2964 680.991 22.0994 681.288 21.7056C681.585 21.3081 681.734 20.7531 681.734 20.0405C681.734 19.4032 681.582 18.8875 681.277 18.4937C680.977 18.0962 680.576 17.8975 680.074 17.8975C679.584 17.8975 679.188 18.0926 678.887 18.4829C678.586 18.8732 678.436 19.4318 678.436 20.1587ZM684.908 17.1885L684.935 17.833C685.361 17.3317 685.936 17.0811 686.659 17.0811C687.472 17.0811 688.025 17.3926 688.319 18.0156C688.512 17.7363 688.763 17.5107 689.071 17.3389C689.382 17.167 689.749 17.0811 690.172 17.0811C691.447 17.0811 692.095 17.756 692.116 19.106V23H691.123V19.165C691.123 18.7497 691.028 18.4399 690.838 18.2358C690.648 18.0282 690.329 17.9243 689.882 17.9243C689.513 17.9243 689.207 18.0353 688.963 18.2573C688.72 18.4757 688.578 18.7712 688.539 19.1436V23H687.54V19.1919C687.54 18.3468 687.126 17.9243 686.299 17.9243C685.648 17.9243 685.202 18.2018 684.962 18.7568V23H683.968V17.1885H684.908Z" fill="#4C4C4C"/>
<path fill-rule="evenodd" clip-rule="evenodd" d="M611 18H610V24H618V18H617V17C617 15.3431 615.657 14 614 14C612.343 14 611 15.3431 611 17V18ZM612 18H616V17C616 15.8954 615.105 15 614 15C612.895 15 612 15.8954 612 17V18Z" fill="#AAAAAA"/>
<rect x="143" y="8" width="37" height="22" rx="4" fill="#F6F6F6"/>
<rect x="142.75" y="7.75" width="37.5" height="22.5" rx="4.25" stroke="black" stroke-opacity="0.05" stroke-width="0.5"/>
<path fill-rule="evenodd" clip-rule="evenodd" d="M160 14H168V24H160V14ZM159 13H160H168C168.552 13 169 13.4477 169 14V24C169 24.5523 168.552 25 168 25H160H159H155C154.448 25 154 24.5523 154 24V14C154 13.4477 154.448 13 155 13H159ZM159 24H155L155 14H159V24Z" fill="#666666"/>
<rect x="156" y="15" width="2" height="1" fill="#ADADAD"/>
<rect x="156" y="17" width="2" height="1" fill="#ADADAD"/>
<rect x="156" y="19" width="2" height="1" fill="#ADADAD"/>
<rect x="108" y="8" width="25" height="22" rx="4" fill="#F6F6F6"/>
<rect x="107.75" y="7.75" width="25.5" height="22.5" rx="4.25" stroke="black" stroke-opacity="0.05" stroke-width="0.5"/>
<path d="M123.774 18.4743C124.075 18.7647 124.075 19.2353 123.774 19.5257L118.317 24.7823C118.016 25.0726 117.527 25.0726 117.226 24.7823C116.925 24.4919 116.925 24.0213 117.226 23.7309L122.137 19L117.226 14.2691C116.925 13.9787 116.925 13.5081 117.226 13.2177C117.527 12.9274 118.016 12.9274 118.317 13.2177L123.774 18.4743Z" fill="#ADADAD"/>
<rect x="82" y="8" width="25" height="22" rx="4" fill="#F6F6F6"/>
<rect x="81.75" y="7.75" width="25.5" height="22.5" rx="4.25" stroke="black" stroke-opacity="0.05" stroke-width="0.5"/>
<path d="M91.226 18.4743C90.9247 18.7647 90.9247 19.2353 91.226 19.5257L96.6827 24.7823C96.984 25.0726 97.4726 25.0726 97.774 24.7823C98.0753 24.4919 98.0753 24.0213 97.774 23.7309L92.863 19L97.774 14.2691C98.0753 13.9787 98.0753 13.5081 97.774 13.2177C97.4726 12.9274 96.984 12.9274 96.6827 13.2177L91.226 18.4743Z" fill="#ADADAD"/>
<circle cx="23" cy="19" r="6" fill="#FF5F57"/>
<circle cx="43" cy="19" r="6" fill="#FFBD2E"/>
<circle cx="63" cy="19" r="6" fill="#27C940"/>
</g>
<defs>
<filter id="filter0_d" x="0" y="0" width="1288" height="728" filterUnits="userSpaceOnUse" color-interpolation-filters="sRGB">
<feFlood flood-opacity="0" result="BackgroundImageFix"/>
<feColorMatrix in="SourceAlpha" type="matrix" values="0 0 0 0 0 0 0 0 0 0 0 0 0 0 0 0 0 0 127 0" result="hardAlpha"/>
<feOffset dy="4"/>
<feGaussianBlur stdDeviation="2"/>
<feComposite in2="hardAlpha" operator="out"/>
<feColorMatrix type="matrix" values="0 0 0 0 0 0 0 0 0 0 0 0 0 0 0 0 0 0 0.25 0"/>
<feBlend mode="normal" in2="BackgroundImageFix" result="effect1_dropShadow"/>
<feBlend mode="normal" in="SourceGraphic" in2="effect1_dropShadow" result="shape"/>
</filter>
<linearGradient id="paint0_linear" x1="644" y1="0" x2="644" y2="38" gradientUnits="userSpaceOnUse">
<stop stop-color="#E6E5E5"/>
<stop offset="1" stop-color="#CDCDCD"/>
</linearGradient>
</defs>
</svg>
