<?xml version="1.0" standalone="no"?>
<!DOCTYPE svg PUBLIC "-//W3C//DTD SVG 20010904//EN"
 "http://www.w3.org/TR/2001/REC-SVG-20010904/DTD/svg10.dtd">
<svg version="1.0" xmlns="http://www.w3.org/2000/svg"
 width="520.000000pt" height="520.000000pt" viewBox="0 0 520.000000 520.000000"
 preserveAspectRatio="xMidYMid meet">
<metadata>
Created by potrace 1.14, written by Peter Selinger 2001-2017
</metadata>
<g transform="translate(0.000000,520.000000) scale(0.100000,-0.100000)"
fill="#000000" stroke="none">
<path d="M1337 3854 c-1 -1 -36 -4 -77 -7 -41 -3 -86 -8 -100 -11 -14 -3 -38
-8 -55 -12 -58 -12 -141 -42 -205 -74 -228 -115 -342 -290 -346 -532 -3 -180
42 -306 150 -413 109 -109 263 -184 566 -276 334 -101 478 -156 557 -211 110
-77 137 -127 137 -249 0 -73 -4 -93 -28 -142 -64 -131 -193 -203 -404 -225
-360 -36 -619 75 -701 303 -37 101 -34 100 -174 103 -138 4 -164 -6 -171 -63
-6 -51 24 -167 61 -237 39 -74 133 -179 203 -225 96 -64 247 -128 349 -148 97
-19 193 -28 303 -27 134 0 177 4 298 27 241 45 450 182 534 349 56 111 70 174
69 306 -1 166 -45 283 -148 385 -100 101 -247 173 -515 255 -416 127 -455 141
-535 182 -123 63 -197 146 -211 235 -39 258 130 408 471 417 220 7 431 -94
499 -239 15 -30 26 -61 26 -69 0 -28 22 -64 47 -75 13 -6 75 -11 137 -11 95 0
117 3 136 18 68 55 -29 305 -167 434 -126 117 -327 206 -506 224 -57 5 -196
12 -200 8z"/>
<path d="M3708 3855 c-2 -2 -46 -5 -98 -8 -115 -8 -145 -12 -235 -39 -255 -75
-446 -252 -540 -501 -62 -166 -71 -264 -69 -719 2 -349 7 -418 44 -556 75
-274 265 -481 523 -567 131 -43 238 -59 410 -57 515 3 868 292 933 762 4 30 8
155 9 278 1 198 -1 226 -17 253 -10 16 -23 30 -30 30 -69 7 -818 3 -835 -4
-33 -15 -46 -57 -42 -146 6 -123 -12 -116 312 -116 l272 0 -1 -140 c-2 -224
-44 -347 -158 -461 -112 -112 -253 -164 -456 -168 -250 -5 -451 100 -540 283
-42 86 -60 149 -77 271 -10 75 -7 704 4 785 40 295 181 458 443 513 155 33
353 13 475 -48 109 -54 214 -164 259 -273 41 -99 27 -92 183 -93 131 0 139 1
161 23 19 19 22 30 18 67 -32 273 -335 544 -679 607 -88 16 -261 31 -269 24z"/>
</g>
</svg>
