<?xml version="1.0" standalone="no"?>
<!DOCTYPE svg PUBLIC "-//W3C//DTD SVG 20010904//EN"
 "http://www.w3.org/TR/2001/REC-SVG-20010904/DTD/svg10.dtd">
<svg version="1.0" xmlns="http://www.w3.org/2000/svg"
 width="260.000000pt" height="260.000000pt" viewBox="0 0 260.000000 260.000000"
 preserveAspectRatio="xMidYMid meet">
<metadata>
Created by potrace 1.14, written by Peter Selinger 2001-2017
</metadata>
<g transform="translate(0.000000,260.000000) scale(0.100000,-0.100000)"
fill="#000000" stroke="none">
<path d="M959 2386 c-168 -60 -261 -241 -253 -491 3 -108 7 -135 29 -200 58
-170 159 -255 311 -261 173 -7 272 86 334 311 52 189 91 302 115 332 45 57
134 64 183 16 28 -27 52 -99 52 -158 0 -109 -35 -181 -107 -216 -22 -11 -44
-27 -47 -35 -3 -9 -6 -55 -6 -104 0 -99 9 -114 62 -107 87 11 194 101 241 201
38 79 49 131 52 230 7 285 -138 471 -358 461 -176 -9 -255 -102 -337 -399 -68
-249 -93 -289 -178 -290 -95 -2 -142 62 -150 204 -6 111 13 182 63 232 20 20
50 42 66 48 16 7 30 18 31 24 5 42 4 193 -3 201 -12 16 -59 16 -100 1z"/>
<path d="M1085 1249 c-250 -40 -388 -225 -380 -511 7 -243 111 -405 302 -469
52 -17 92 -22 204 -23 100 -2 145 1 157 10 15 11 17 37 18 231 1 128 -3 223
-9 231 -12 16 -139 16 -155 0 -8 -8 -12 -49 -12 -119 0 -76 -4 -108 -12 -112
-29 -10 -126 5 -173 28 -87 42 -131 135 -123 260 8 121 60 190 166 222 85 25
424 24 504 -2 101 -31 157 -114 157 -230 1 -123 -33 -189 -124 -244 l-55 -33
0 -110 c0 -103 1 -109 22 -117 13 -4 38 -4 58 2 175 48 290 232 293 469 2 155
-17 238 -77 333 -54 83 -126 136 -235 172 -52 17 -438 26 -526 12z"/>
</g>
</svg>
